HIERARCHY
ROOT Hips
{
  OFFSET -90.443 85.0611 17.5758
  CHANNELS 6 Xposition Yposition Zposition Zrotation Xrotation Yrotation
  JOINT Spine
  {
    OFFSET 0.375892 0.0126102 8.57058
    CHANNELS 6 Xposition Yposition Zposition Zrotation Xrotation Yrotation
    JOINT Spine1
    {
      OFFSET 0 0 12.2259
      CHANNELS 6 Xposition Yposition Zposition Zrotation Xrotation Yrotation
      JOINT Spine2
      {
        OFFSET 0 0 14.2636
        CHANNELS 6 Xposition Yposition Zposition Zrotation Xrotation Yrotation
        JOINT Neck
        {
          OFFSET 0 0 14.2636
          CHANNELS 6 Xposition Yposition Zposition Zrotation Xrotation Yrotation
          JOINT Head
          {
            OFFSET 0.863006 4.34015 8.57778
            CHANNELS 6 Xposition Yposition Zposition Zrotation Xrotation Yrotation
            End Site
            {
              OFFSET 0 0 0
            }
          }
        }
        JOINT LeftShoulder
        {
          OFFSET -2.62842 -0.756112 5.10292
          CHANNELS 6 Xposition Yposition Zposition Zrotation Xrotation Yrotation
          JOINT LeftArm
          {
            OFFSET -15.9557 0 0
            CHANNELS 6 Xposition Yposition Zposition Zrotation Xrotation Yrotation
            JOINT LeftForeArm
            {
              OFFSET -22.6608 0 0
              CHANNELS 6 Xposition Yposition Zposition Zrotation Xrotation Yrotation
              JOINT LeftForeArmRoll
              {
                OFFSET -11.8302 0 0
                CHANNELS 6 Xposition Yposition Zposition Zrotation Xrotation Yrotation
                JOINT LeftHand
                {
                  OFFSET -11.8302 0 0
                  CHANNELS 6 Xposition Yposition Zposition Zrotation Xrotation Yrotation
                  End Site
                  {
                    OFFSET 0 0 0
                  }
                }
              }
            }
          }
        }
        JOINT RightShoulder
        {
          OFFSET 2.71631 -0.85971 5.09985
          CHANNELS 6 Xposition Yposition Zposition Zrotation Xrotation Yrotation
          JOINT RightArm
          {
            OFFSET 16.2908 0 0
            CHANNELS 6 Xposition Yposition Zposition Zrotation Xrotation Yrotation
            JOINT RightForeArm
            {
              OFFSET 24.1043 0 0
              CHANNELS 6 Xposition Yposition Zposition Zrotation Xrotation Yrotation
              JOINT RightForeArmRoll
              {
                OFFSET 10.9796 0 0
                CHANNELS 6 Xposition Yposition Zposition Zrotation Xrotation Yrotation
                JOINT RightHand
                {
                  OFFSET 10.9796 0 0
                  CHANNELS 6 Xposition Yposition Zposition Zrotation Xrotation Yrotation
                  End Site
                  {
                    OFFSET 0 0 0
                  }
                }
              }
            }
          }
        }
      }
    }
  }
  JOINT LeftUpLeg
  {
    OFFSET -7.73585 -0.626045 -0.132254
    CHANNELS 6 Xposition Yposition Zposition Zrotation Xrotation Yrotation
    JOINT LeftLeg
    {
      OFFSET 0 -0.344939 -39.5261
      CHANNELS 6 Xposition Yposition Zposition Zrotation Xrotation Yrotation
      JOINT LeftFoot
      {
        OFFSET 0 -1.9824 -37.8264
        CHANNELS 6 Xposition Yposition Zposition Zrotation Xrotation Yrotation
        JOINT LeftToeBase
        {
          OFFSET 0 9.39699 -5.78644
          CHANNELS 6 Xposition Yposition Zposition Zrotation Xrotation Yrotation
          End Site
          {
            OFFSET 0 0 0
          }
        }
      }
    }
  }
  JOINT RightUpLeg
  {
    OFFSET 7.73585 -0.626045 -0.132254
    CHANNELS 6 Xposition Yposition Zposition Zrotation Xrotation Yrotation
    JOINT RightLeg
    {
      OFFSET 0 -0.340593 -39.0281
      CHANNELS 6 Xposition Yposition Zposition Zrotation Xrotation Yrotation
      JOINT RightFoot
      {
        OFFSET 0 -2.02699 -38.6773
        CHANNELS 6 Xposition Yposition Zposition Zrotation Xrotation Yrotation
        JOINT RightToeBase
        {
          OFFSET 0 9.2383 -5.02314
          CHANNELS 6 Xposition Yposition Zposition Zrotation Xrotation Yrotation
          End Site
          {
            OFFSET 0 0 0
          }
        }
      }
    }
  }
}
MOTION
Frames:	9
Frame Time:	0.02
-90.443 85.0611 17.5758 -135.012 81.4229 -46.6838 0.375892 0.0126102 8.57058 -1.49102 5.92113 0.93329 4.26326e-14 -5.32907e-15 12.2259 0.414835 -7.53605 1.4113 -1.42109e-14 0 14.2636 0.311019 -5.04184 1.60126 1.42109e-14 3.55271e-15 14.2636 -12.8 13.2227 -7.26579 0.863006 4.34015 8.57778 -17.1953 -4.99868 0.127707 -2.62842 -0.756112 5.10292 1.20695 -10.7377 3.10035 -15.9557 0 0 -5.60726 -7.57645 -69.2499 -22.6608 -2.84217e-14 -2.4869e-14 -40.8082 -5.57712 -38.326 -11.8302 9.23706e-14 2.84217e-14 -1.39149e-15 -6.36111e-15 3.57812e-15 -11.8302 -7.10543e-15 -5.68434e-14 6.3824 0.00366513 -4.80583 2.71631 -0.85971 5.09985 2.2009 -0.399818 7.6856 16.2908 -7.10543e-15 0 15.5706 18.3555 61.3929 24.1043 -3.55271e-15 0 24.7983 -29.7775 22.4196 10.9796 4.26326e-14 1.42109e-14 7.95139e-15 -6.36111e-15 3.18055e-15 10.9796 0 -2.84217e-14 -10.3816 1.89632 -2.59341 -7.73585 -0.626045 -0.132254 -0.0451658 19.2275 2.1753 0 -0.344939 -39.5261 -1.86941 -16.5207 0.858316 -3.35802e-11 -1.9824 -37.8264 -0.362058 4.33107 -1.69985 -8.70401e-08 9.39699 -5.78644 0.081925 0.38298 -0.276604 7.73585 -0.626045 -0.132254 -12.2647 18.4987 1.23936 4.26326e-14 -0.340593 -39.0281 -0.0054967 -18.5108 -0.668648 -4.34383e-10 -2.02699 -38.6773 -0.158516 5.81197 1.9014 1.51919e-07 9.2383 -5.02314 0.192659 0.122103 0.0804926 
-90.5531 84.989 17.9087 -135.823 81.5764 -46.1786 0.375892 0.0126102 8.57058 -1.41359 6.95943 1.27459 1.42109e-14 -3.55271e-15 12.2259 0.768463 -8.23981 1.07091 -1.42109e-14 3.55271e-15 14.2636 0.518527 -5.48509 2.06206 1.42109e-14 0 14.2636 -12.8872 13.5037 -7.43866 0.863006 4.34015 8.57778 -16.5656 -5.14461 0.293324 -2.62842 -0.756112 5.10292 1.02214 -10.4707 2.78069 -15.9557 1.42109e-14 1.42109e-14 -7.35977 -7.431 -69.4477 -22.6608 -2.13163e-14 -1.77636e-14 -43.4943 -10.4047 -34.5389 -11.8302 9.23706e-14 0 9.93923e-17 0 8.24956e-15 -11.8302 -7.10543e-15 -4.26326e-14 7.87845 -2.49332 -2.51406 2.71631 -0.85971 5.09985 1.60039 -0.458514 7.39409 16.2908 -7.10543e-15 2.84217e-14 17.0083 18.3393 61.3705 24.1043 0 2.84217e-14 23.7863 -29.0605 21.4417 10.9796 4.9738e-14 1.42109e-14 1.27222e-14 0 7.95139e-15 10.9796 -2.13163e-14 -1.42109e-14 -10.6419 1.4987 -2.85273 -7.73585 -0.626045 -0.132254 0.34638 18.7833 2.62966 2.84217e-14 -0.344939 -39.5261 -1.74452 -16.1583 0.7855 -3.35945e-11 -1.9824 -37.8264 -0.526811 5.08423 -1.62811 -8.70401e-08 9.39699 -5.78644 -0.00602585 0.593306 -0.245186 7.73585 -0.626045 -0.132254 -12.2214 17.9449 1.72381 4.26326e-14 -0.340593 -39.0281 -0.0280696 -18.0279 -0.872239 -4.34383e-10 -2.02699 -38.6773 0.0355507 6.33643 1.90325 1.51919e-07 9.2383 -5.02314 0.119962 0.215046 0.0607442 
-90.549 84.964 18.1117 -136.437 81.6065 -45.6356 0.375892 0.0126102 8.57058 -1.37339 7.45349 1.5551 4.26326e-14 -5.32907e-15 12.2259 0.943883 -8.38261 1.07697 -1.42109e-14 0 14.2636 0.559485 -5.60412 1.68743 1.42109e-14 7.10543e-15 14.2636 -12.9044 13.38 -7.32734 0.863006 4.34015 8.57778 -16.5356 -5.18251 0.271815 -2.62842 -0.756112 5.10292 1.06534 -9.92932 2.09724 -15.9557 1.42109e-14 1.42109e-14 -8.19444 -7.08074 -68.115 -22.6608 -1.42109e-14 -3.19744e-14 -42.7422 -12.0626 -32.0164 -11.8302 8.52651e-14 1.42109e-14 -2.28602e-15 -9.54166e-15 4.58447e-15 -11.8302 -7.10543e-15 -5.68434e-14 8.48168 -2.66295 -2.01618 2.71631 -0.85971 5.09985 1.46477 -0.607517 7.65288 16.2908 0 2.84217e-14 17.3611 18.1217 61.2594 24.1043 0 0 23.6985 -28.7455 21.1031 10.9796 2.84217e-14 1.42109e-14 2.64834e-31 -3.18055e-15 4.77083e-15 10.9796 0 -2.84217e-14 -10.6736 1.46017 -2.8703 -7.73585 -0.626045 -0.132254 0.48178 18.5694 2.68021 1.42109e-14 -0.344939 -39.5261 -1.70125 -16.01 0.839166 -3.3566e-11 -1.9824 -37.8264 -0.579574 5.42412 -1.5857 -8.70401e-08 9.39699 -5.78644 -0.00862596 0.677885 -0.24316 7.73585 -0.626045 -0.132254 -12.2325 17.786 1.78672 4.26326e-14 -0.340593 -39.0281 -0.0378443 -17.9706 -0.853 -4.34383e-10 -2.02699 -38.6773 0.133681 6.64847 1.90443 1.51919e-07 9.2383 -5.02314 0.108784 0.269645 0.0443621 
-90.5801 84.9577 18.2457 -136.366 81.5845 -45.822 0.375892 0.0126102 8.57058 -1.45891 7.83635 1.7924 1.42109e-14 -5.32907e-15 12.2259 1.11704 -8.56539 1.04667 -4.26326e-14 0 14.2636 0.60079 -5.68483 1.52387 1.42109e-14 -1.06581e-14 14.2636 -12.9235 13.3009 -7.13394 0.863006 4.34015 8.57778 -16.4891 -5.23956 0.292084 -2.62842 -0.756112 5.10292 1.12898 -9.47496 1.50743 -15.9557 7.10543e-15 1.42109e-14 -9.05119 -6.45456 -67.2829 -22.6608 -1.42109e-14 -2.4869e-14 -41.9839 -14.4706 -28.9524 -11.8302 9.9476e-14 7.10543e-15 -2.38542e-15 -9.54166e-15 3.47873e-15 -11.8302 -7.10543e-15 -5.68434e-14 9.50967 -3.15526 -1.19773 2.71631 -0.85971 5.09985 1.44473 -0.699563 7.66912 16.2908 -3.55271e-15 8.52651e-14 17.784 17.8812 61.1658 24.1043 -3.55271e-15 -2.84217e-14 23.5139 -28.4037 20.8018 10.9796 4.26326e-14 -1.42109e-14 9.54166e-15 -3.18055e-15 1.59028e-15 10.9796 -1.42109e-14 0 -10.7286 1.42895 -2.86745 -7.73585 -0.626045 -0.132254 0.607268 18.4005 2.82488 1.42109e-14 -0.344939 -39.5261 -1.75061 -15.8434 0.804104 -3.35945e-11 -1.9824 -37.8264 -0.744085 5.66201 -1.55353 -8.70401e-08 9.39699 -5.78644 -0.0281739 0.734253 -0.252615 7.73585 -0.626045 -0.132254 -12.2725 17.5807 1.94369 4.26326e-14 -0.340593 -39.0281 -0.113768 -17.8148 -0.947409 -4.34383e-10 -2.02699 -38.6773 0.176091 6.771 1.90267 1.51919e-07 9.2383 -5.02314 0.0872837 0.27158 0.0384713 
-90.6761 84.9512 18.2378 -136.53 81.3573 -45.8753 0.375892 0.0126102 8.57058 -1.61542 8.08094 2.05105 5.68434e-14 -5.32907e-15 12.2259 1.36624 -8.64145 0.850025 -1.42109e-14 3.55271e-15 14.2636 0.587707 -5.61431 1.66753 -1.42109e-14 -3.55271e-15 14.2636 -12.9378 13.3198 -6.97398 0.863006 4.34015 8.57778 -16.414 -5.25657 0.316588 -2.62842 -0.756112 5.10292 1.35136 -9.14323 1.08884 -15.9557 0 0 -10.5028 -5.57737 -67.4162 -22.6608 -2.13163e-14 -2.4869e-14 -41.2359 -18.8964 -24.6926 -11.8302 9.23706e-14 1.42109e-14 -2.38542e-15 -3.18055e-15 2.98177e-15 -11.8302 -7.10543e-15 -5.68434e-14 11.9163 -4.01889 0.677501 2.71631 -0.85971 5.09985 1.48215 -0.783211 7.61218 16.2908 -3.55271e-15 5.68434e-14 18.9555 17.3125 60.8129 24.1043 0 2.84217e-14 23.1774 -27.4496 20.1317 10.9796 4.26326e-14 -1.42109e-14 1.59028e-14 -9.54166e-15 7.95139e-15 10.9796 -2.13163e-14 -1.42109e-14 -10.802 1.36854 -2.8535 -7.73585 -0.626045 -0.132254 0.863912 18.5943 3.05692 1.42109e-14 -0.344939 -39.5261 -1.8747 -15.7581 0.743011 -3.35945e-11 -1.9824 -37.8264 -1.08391 5.72746 -1.4916 -8.70401e-08 9.39699 -5.78644 -0.0539929 0.774898 -0.308259 7.73585 -0.626045 -0.132254 -12.3234 17.5964 2.31041 4.26326e-14 -0.340593 -39.0281 -0.302226 -17.6102 -1.12373 -4.34355e-10 -2.02699 -38.6773 0.222132 6.67311 1.93225 1.51919e-07 9.2383 -5.02314 0.0181293 0.21086 0.0377339 
-90.743 84.9421 18.2197 -136.177 81.2204 -46.2643 0.375892 0.0126102 8.57058 -1.60662 8.06367 2.14783 1.42109e-14 -3.55271e-15 12.2259 1.41527 -8.58 0.828338 -1.42109e-14 3.55271e-15 14.2636 0.614969 -5.42831 1.41423 2.84217e-14 3.55271e-15 14.2636 -12.9827 13.1756 -6.74715 0.863006 4.34015 8.57778 -16.4335 -5.35403 0.391597 -2.62842 -0.756112 5.10292 1.4922 -8.52623 0.615895 -15.9557 7.10543e-15 0 -11.2573 -4.94083 -66.3121 -22.6608 -2.84217e-14 -2.84217e-14 -39.5642 -20.02 -22.1734 -11.8302 9.23706e-14 2.13163e-14 -1.19271e-15 0 3.57812e-15 -11.8302 -7.10543e-15 -6.39488e-14 12.2952 -3.92029 0.965134 2.71631 -0.85971 5.09985 1.48889 -0.87081 7.73462 16.2908 -3.55271e-15 2.84217e-14 19.2069 17.1548 60.7512 24.1043 -3.55271e-15 2.84217e-14 23.0271 -27.1702 19.8814 10.9796 4.26326e-14 1.42109e-14 7.95139e-15 -3.18055e-15 3.18055e-15 10.9796 -2.84217e-14 0 -10.8303 1.38924 -2.83357 -7.73585 -0.626045 -0.132254 0.875689 18.6694 3.13481 1.42109e-14 -0.344939 -39.5261 -1.94946 -15.7097 0.687003 -3.35945e-11 -1.9824 -37.8264 -1.19981 5.73113 -1.49163 -8.70401e-08 9.39699 -5.78644 -0.058501 0.783378 -0.325408 7.73585 -0.626045 -0.132254 -12.3819 17.6297 2.40352 4.26326e-14 -0.340593 -39.0281 -0.395464 -17.6215 -1.17213 -4.34383e-10 -2.02699 -38.6773 0.195336 6.76471 1.93142 1.51919e-07 9.2383 -5.02314 0.00075936 0.227238 0.0317629 
-90.8245 84.9034 18.1811 -135.488 81.0932 -47.0123 0.375892 0.0126102 8.57058 -1.55447 8.02491 2.1815 2.84217e-14 -7.10543e-15 12.2259 1.49366 -8.55164 0.794495 -1.42109e-14 3.55271e-15 14.2636 0.636043 -5.28267 1.29983 1.42109e-14 -3.55271e-15 14.2636 -12.9896 13.0524 -6.60068 0.863006 4.34015 8.57778 -16.44 -5.47125 0.417855 -2.62842 -0.756112 5.10292 1.56622 -7.94774 0.408604 -15.9557 7.10543e-15 1.42109e-14 -11.8267 -4.08983 -65.5893 -22.6608 -1.06581e-14 -3.55271e-14 -38.0264 -20.6382 -19.9958 -11.8302 8.52651e-14 1.42109e-14 -7.95139e-16 9.54166e-15 3.57812e-15 -11.8302 -7.10543e-15 -4.9738e-14 12.6626 -3.73871 1.1586 2.71631 -0.85971 5.09985 1.59109 -0.93927 7.72557 16.2908 -7.10543e-15 2.84217e-14 19.3936 17.0222 60.764 24.1043 -3.55271e-15 0 22.8733 -27.0093 19.7631 10.9796 3.55271e-14 0 1.27222e-14 0 6.36111e-15 10.9796 0 -1.42109e-14 -10.867 1.38533 -2.82494 -7.73585 -0.626045 -0.132254 0.884294 18.744 3.26026 0 -0.344939 -39.5261 -2.01854 -15.6718 0.626297 -3.35945e-11 -1.9824 -37.8264 -1.30354 5.75787 -1.48575 -8.70401e-08 9.39699 -5.78644 -0.0612194 0.800686 -0.335428 7.73585 -0.626045 -0.132254 -12.4297 17.6253 2.55086 5.68434e-14 -0.340593 -39.0281 -0.480219 -17.5979 -1.25154 -4.34383e-10 -2.02699 -38.6773 0.17032 6.81745 1.92103 1.51919e-07 9.2383 -5.02314 -0.00682793 0.235882 0.0243844 
-90.9169 84.8926 18.1301 -135.024 80.9761 -47.5992 0.375892 0.0126102 8.57058 -1.59255 7.96876 2.2826 1.42109e-14 -8.88178e-15 12.2259 1.53942 -8.48038 0.740799 -2.84217e-14 0 14.2636 0.595586 -5.13452 1.226 1.42109e-14 -3.55271e-15 14.2636 -12.9831 12.9628 -6.41338 0.863006 4.34015 8.57778 -16.4255 -5.60227 0.432899 -2.62842 -0.756112 5.10292 1.67601 -7.49774 0.190068 -15.9557 0 0 -12.2618 -3.13381 -65.1194 -22.6608 -2.84217e-14 -3.19744e-14 -36.2338 -20.6397 -17.7673 -11.8302 9.23706e-14 7.10543e-15 -2.38542e-15 0 3.97569e-15 -11.8302 0 -6.39488e-14 13.1296 -3.30107 1.26167 2.71631 -0.85971 5.09985 1.72901 -0.89638 7.74098 16.2908 0 2.84217e-14 19.68 16.8883 60.7012 24.1043 0 0 22.7628 -26.9907 19.6678 10.9796 2.84217e-14 0 9.54166e-15 6.36111e-15 -0 10.9796 -1.42109e-14 -1.42109e-14 -10.875 1.30815 -2.85226 -7.73585 -0.626045 -0.132254 0.899326 18.8478 3.46415 0 -0.344939 -39.5261 -2.1059 -15.7021 0.524193 -3.36087e-11 -1.9824 -37.8264 -1.42869 5.7747 -1.47589 -8.70401e-08 9.39699 -5.78644 -0.0682225 0.822122 -0.3452 7.73585 -0.626045 -0.132254 -12.4894 17.6386 2.77864 5.68434e-14 -0.340593 -39.0281 -0.591921 -17.5741 -1.37028 -4.34369e-10 -2.02699 -38.6773 0.133168 6.85314 1.91055 1.51919e-07 9.2383 -5.02314 -0.0187499 0.23627 0.0188902 
-90.984 84.8803 18.1111 -134.41 80.9006 -48.2692 0.375892 0.0126102 8.57058 -1.62569 7.94843 2.33577 2.84217e-14 -5.32907e-15 12.2259 1.59317 -8.44483 0.632187 -1.42109e-14 3.55271e-15 14.2636 0.563207 -5.04322 1.19106 1.42109e-14 -3.55271e-15 14.2636 -12.9367 12.8183 -6.18293 0.863006 4.34015 8.57778 -16.391 -5.72677 0.46702 -2.62842 -0.756112 5.10292 1.65957 -7.1009 0.0101135 -15.9557 1.42109e-14 -1.42109e-14 -12.7065 -2.30008 -64.503 -22.6608 -2.4869e-14 -3.73035e-14 -35.0201 -20.3404 -16.3032 -11.8302 9.9476e-14 1.77636e-14 -7.95139e-16 -6.36111e-15 -0 -11.8302 -1.42109e-14 -4.9738e-14 13.4425 -2.90959 1.2752 2.71631 -0.85971 5.09985 1.78764 -0.886961 7.76122 16.2908 -3.55271e-15 0 19.8625 16.8363 60.6636 24.1043 3.55271e-15 0 22.6814 -26.8232 19.5101 10.9796 4.9738e-14 0 3.18055e-15 -3.18055e-15 6.36111e-15 10.9796 -1.42109e-14 0 -10.8954 1.31762 -2.83779 -7.73585 -0.626045 -0.132254 0.906328 18.8977 3.5979 1.42109e-14 -0.344939 -39.5261 -2.18198 -15.7707 0.423782 -3.35802e-11 -1.9824 -37.8264 -1.53076 5.81603 -1.47334 -8.70401e-08 9.39699 -5.78644 -0.0751684 0.84665 -0.352933 7.73585 -0.626045 -0.132254 -12.5345 17.606 2.91236 4.26326e-14 -0.340593 -39.0281 -0.67989 -17.5753 -1.46781 -4.34355e-10 -2.02699 -38.6773 0.0999132 6.8695 1.90527 1.51919e-07 9.2383 -5.02314 -0.0274759 0.235116 0.0174657 
